<svg height="512" viewBox="0 0 60 59" width="512" xmlns="http://www.w3.org/2000/svg"><g id="005---Astronaut" fill="none"><path id="Shape" d="m20.11 33.44-.83-6.22 2.33-4.11 14 2c.9424397 1.5801031 1.7938272 3.2127638 2.55 4.89z" fill="#d25627"/><path id="Shape" d="m31 26c3.4228664-.0001101 6.6827805-1.4619119 8.9596532-4.0176632 2.2768726-2.5557514 3.3539764-5.9621795 2.9603468-9.3623368l-.64-5.54c-.4694184-4.05560333-3.9174103-7.10707618-8-7.08h-11.69c-4.0597055.00351382-7.4731352 3.04722697-7.94 7.08l-.65 5.54c-.5235462 4.5254055 1.5605509 8.9570171 5.38 11.44 4.67 2.13 3.32 1.94 11.62 1.94z" fill="#e57e25"/><path id="Shape" d="m25.93 22c-2.2790046-.0048206-4.4477727-.9814077-5.9619829-2.6846554-1.5142101-1.7032477-2.2301083-3.9714556-1.9680171-6.2353446l.64-5.54c.2329837-2.01260493 1.9339661-3.53318003 3.96-3.54h11.74c2.0412949-.01353809 3.7652908 1.51219833 4 3.54l.66 5.54c.2635434 2.2760357-.4614634 4.5558302-1.9912636 6.2615573-1.5298001 1.7057272-3.717544 2.6736498-6.0087364 2.6584427z" fill="#35495e"/><path id="Shape" d="m23.49 8c-.4209041-.00848826-.7914165-.27967755-.9267549-.67832009-.1353383-.39864254-.0065153-.83935524.3222225-1.10234543.3287377-.26299019.7869796-.29192944 1.1461907-.07238512.3592111.21954431.5424541.64054918.4583417 1.05305064-.0964736.47312322-.5172392.80973571-1 .8z" fill="#fff"/><path id="Shape" d="m33.49 8h-6c-.5522847 0-1-.44771525-1-1s.4477153-1 1-1h6c.5522847 0 1 .44771525 1 1s-.4477153 1-1 1z" fill="#fff"/><path id="Shape" d="m26.77 48c-.4537988 2.4387901-.6149382 4.9230215-.48 7.4.0700824 1.1437857-.6716684 2.179925-1.7769973 2.4822578-1.1053289.3023329-2.2711788-.2120338-2.7930027-1.2322578-1.3319036-2.7319769-2.248666-5.6474163-2.72-8.65z" fill="#e57e25"/><path id="Shape" d="m38 48c-.4747661 3.00562-1.4019439 5.9220156-2.75 8.65-.5241183 1.0529268-1.7293966 1.5765527-2.8566986 1.2410755s-1.8501662-1.4329048-1.7133014-2.6010755c.1503876-2.4400957-.0075248-4.8894167-.47-7.29z" fill="#e57e25"/><path id="Shape" d="m41 30c.5522847 0 1-.4477153 1-1v-3c.0004965-.3925078.2305711-.7484304.5882654-.9100393.3576943-.1616088.776857-.0990164 1.0717346.1600393l12.7 12.29c.4039006.3781435.6331057.9067114.6331057 1.46s-.2292051 1.0818565-.6331057 1.46l-12.7 12.29c-.2948776.2590557-.7140403.3216481-1.0717346.1600393-.3576943-.1616089-.5877689-.5175315-.5882654-.9100393v-3c0-.5522847-.4477153-1-1-1h-36c-1.1045695 0-2-.8954305-2-2v-14c0-1.1045695.8954305-2 2-2z" fill="#955ba5"/><path id="Shape" d="m11 41c-1.50579608.0148202-2.78925127-1.0889512-3-2.58l-1-7c-.19523213-1.3710543.57340555-2.6975742 1.86-3.21l10-4c1.5408745-.6157975 3.2892025.1341255 3.905 1.675s-.1341255 3.2892025-1.675 3.905l-7.81 3.12.72 4.67c.1224178.8654951-.1387355 1.7413392-.7151566 2.3984592-.576421.6571199-1.4107761 1.0301555-2.2848434 1.0215408z" fill="#f29c1f"/><g fill="#f0c419"><path id="Shape" d="m52 9c-.5522847 0-1-.44771525-1-1v-4c0-.55228475.4477153-1 1-1s1 .44771525 1 1v4c0 .55228475-.4477153 1-1 1z"/><path id="Shape" d="m54 7h-4c-.5522847 0-1-.44771525-1-1s.4477153-1 1-1h4c.5522847 0 1 .44771525 1 1s-.4477153 1-1 1z"/><path id="Shape" d="m6 19c-.55228475 0-1-.4477153-1-1v-4c0-.5522847.44771525-1 1-1s1 .4477153 1 1v4c0 .5522847-.44771525 1-1 1z"/><path id="Shape" d="m8 17h-4c-.55228475 0-1-.4477153-1-1s.44771525-1 1-1h4c.55228475 0 1 .4477153 1 1s-.44771525 1-1 1z"/></g><path id="Shape" d="m59 59h-3c-.5522847 0-1-.4477153-1-1s.4477153-1 1-1h3c.5522847 0 1 .4477153 1 1s-.4477153 1-1 1z" fill="#cbb292"/><path id="Shape" d="m52 59h-51c-.55228475 0-1-.4477153-1-1s.44771525-1 1-1h51c.5522847 0 1 .4477153 1 1s-.4477153 1-1 1z" fill="#cbb292"/><path id="Shape" d="m12 45h-4c-.55228475 0-1-.4477153-1-1s.44771525-1 1-1h4c.5522847 0 1 .4477153 1 1s-.4477153 1-1 1z" fill="#894b9d"/><path id="Shape" d="m41 45h-24c-.5522847 0-1-.4477153-1-1s.4477153-1 1-1h24c.5522847 0 1 .4477153 1 1s-.4477153 1-1 1z" fill="#894b9d"/></g></svg>