<svg id="SvgjsSvg1037" width="288" height="288" xmlns="http://www.w3.org/2000/svg" version="1.1" xmlns:xlink="http://www.w3.org/1999/xlink" xmlns:svgjs="http://svgjs.com/svgjs"><defs id="SvgjsDefs1038"></defs><g id="SvgjsG1039"><svg xmlns="http://www.w3.org/2000/svg" width="288" height="288" viewBox="0 -115 512 512"><path d="m409.601562 162.019531v-93.757812c-.003906-22.15625-10.757812-42.933594-28.847656-55.726563-18.085937-12.796875-41.261718-16.015625-62.152344-8.636718l-45.535156 16.125c-11.039062 3.851562-23.050781 3.851562-34.089844 0l-45.585937-16.125c-20.890625-7.375-44.0625-4.15625-62.148437 8.640624-18.085938 12.792969-28.839844 33.570313-28.84375 55.722657v93.757812c-35.453126 8.113281-102.398438 27.808594-102.398438 60.78125 0 55.425781 195.941406 59.734375 256 59.734375s256-4.308594 256-59.734375c0-32.972656-66.945312-52.667969-102.398438-60.78125zm-290.136718 7.175781c10.816406 2.816407 21.835937 4.777344 32.957031 5.871094 34.40625 3.605469 68.984375 5.300782 103.578125 5.070313 34.59375.230469 69.171875-1.464844 103.578125-5.070313 11.121094-1.09375 22.140625-3.054687 32.957031-5.871094v33.28125c-11.410156 5.246094-61.773437 11.792969-136.535156 11.792969s-125.125-6.546875-136.535156-11.757812zm0-100.933593c0-16.621094 8.070312-32.207031 21.640625-41.804688 13.570312-9.59375 30.957031-12.007812 46.628906-6.464843l45.59375 16.136718c14.710937 5.140625 30.726563 5.140625 45.4375 0l45.5-16.136718c15.671875-5.542969 33.058594-3.128907 46.628906 6.464843 13.570313 9.597657 21.640625 25.183594 21.640625 41.804688v83.046875c-11.410156 5.214844-61.773437 11.761718-136.535156 11.761718s-125.125-6.546874-136.535156-11.761718zm136.535156 197.207031c-164.796875 0-238.933594-24.953125-238.933594-42.667969 0-9.605469 23.039063-28.542969 85.332032-43.246093v26.179687c0 9.269531 8.183593 15.601563 50.023437 20.53125 34.40625 3.609375 68.984375 5.300781 103.578125 5.070313 34.59375.230468 69.171875-1.460938 103.578125-5.070313 41.839844-4.929687 50.023437-11.261719 50.023437-20.53125v-26.179687c62.292969 14.703124 85.332032 33.640624 85.332032 43.246093 0 17.714844-74.128906 42.667969-238.933594 42.667969zm0 0" fill="#280b38" class="color000 svgShape"></path><path d="M304.699219 66.703125c3.234375-3.347656 3.1875-8.671875-.101563-11.964844-3.292968-3.289062-8.617187-3.335937-11.964844-.101562-10.058593 9.105469-23.066406 14.277343-36.632812 14.566406-13.574219-.363281-26.578125-5.53125-36.691406-14.585937-3.355469-3.226563-8.675782-3.175782-11.964844.121093-3.285156 3.296875-3.324219 8.621094-.085938 11.964844 13.296876 12.28125 30.644532 19.242187 48.742188 19.566406 18.082031-.332031 35.414062-7.296875 48.699219-19.566406zm0 0M145.066406 77.734375c-4.710937 0-8.53125 3.820313-8.53125 8.535156v34.132813c0 4.710937 3.820313 8.535156 8.53125 8.535156 4.714844 0 8.535156-3.824219 8.535156-8.535156v-34.132813c0-4.714843-3.820312-8.535156-8.535156-8.535156zm0 0" fill="#280b38" class="color000 svgShape"></path></svg></g></svg>